<svg width="16" height="16" viewBox="0 0 100 100" fill="none" xmlns="http://www.w3.org/2000/svg">
<path d="M60.85 11.5C54.4305 10.7693 47.9487 10.7693 41.5292 11.5L34.8833 12.2583C34.4065 12.3131 33.9632 12.5309 33.6284 12.8748C33.2936 13.2187 33.0878 13.6677 33.0458 14.1458L32.5333 19.9042C31.6744 29.5838 31.6744 39.3204 32.5333 49L33.0458 54.7583C33.0917 55.2771 33.3301 55.7598 33.7142 56.1115C34.0982 56.4632 34.6001 56.6583 35.1208 56.6583H43.75V87.5C43.7508 87.9311 43.8853 88.3514 44.135 88.7029C44.3847 89.0544 44.7373 89.3197 45.1441 89.4623C45.551 89.6049 45.9921 89.6178 46.4066 89.4992C46.8211 89.3806 47.1885 89.1363 47.4583 88.8L49.0875 86.7583C58.7942 74.6071 66.5239 61.0011 71.9917 46.4417L72.7833 44.3292C72.9019 44.0139 72.9422 43.6746 72.901 43.3404C72.8597 43.0061 72.7379 42.6869 72.5462 42.41C72.3545 42.1331 72.0986 41.9068 71.8002 41.7505C71.5019 41.5942 71.1701 41.5125 70.8333 41.5125H59.5292L69.2167 15.0458C69.3253 14.7497 69.3653 14.4327 69.3335 14.1188C69.3018 13.805 69.1992 13.5024 69.0335 13.234C68.8678 12.9656 68.6433 12.7383 68.3769 12.5692C68.1106 12.4002 67.8093 12.2939 67.4958 12.2583L60.85 11.5Z" fill="#545454"/>
</svg>
